<svg width="18" height="9" viewBox="0 0 18 9" fill="none" xmlns="http://www.w3.org/2000/svg">
<path d="M1.12304 -7.37715e-07C1.42165 0.00026536 1.70793 0.120549 1.91894 0.334407L7.67948 6.16526C7.8538 6.34174 8.06075 6.48175 8.28853 6.57726C8.51631 6.67278 8.76044 6.72194 9.00699 6.72194C9.25354 6.72194 9.49767 6.67278 9.72545 6.57726C9.95323 6.48175 10.1602 6.34174 10.3345 6.16526L16.0913 0.342007C16.3037 0.134343 16.5882 0.0194345 16.8835 0.022032C17.1788 0.0246294 17.4613 0.144525 17.6701 0.355895C17.8789 0.567265 17.9974 0.853197 18 1.15211C18.0025 1.45102 17.889 1.73899 17.6838 1.954L11.9316 7.77725C11.1565 8.56025 10.1062 9 9.01112 9C7.91607 9 6.86576 8.56025 6.09068 7.77725L0.330141 1.9464C0.17275 1.78719 0.0654754 1.58436 0.0218543 1.3635C-0.0217648 1.14265 0.00022312 0.913659 0.0850448 0.705438C0.169867 0.497217 0.313723 0.319093 0.498459 0.193544C0.683193 0.0679948 0.90053 0.000647013 1.12304 -7.37715e-07Z" fill="black"/>
</svg>
