<svg width="32" height="27" viewBox="0 0 32 27" fill="none" xmlns="http://www.w3.org/2000/svg">
<path d="M29.7143 11.2599H6.85714L14.3771 3.85206C14.5914 3.64274 14.7614 3.39371 14.8775 3.11933C14.9935 2.84495 15.0533 2.55065 15.0533 2.25341C15.0533 1.95617 14.9935 1.66187 14.8775 1.38748C14.7614 1.1131 14.5914 0.864072 14.3771 0.654755C13.9489 0.235388 13.3696 0 12.7657 0C12.1619 0 11.5825 0.235388 11.1543 0.654755L1.34857 10.3367C0.490085 11.1774 0.00510352 12.3191 0 13.5115C0.0111236 14.6961 0.495645 15.8287 1.34857 16.6638L11.1543 26.3458C11.3674 26.5542 11.6201 26.7193 11.898 26.8315C12.1759 26.9438 12.4735 27.001 12.7738 27C13.0741 26.9989 13.3713 26.9396 13.6484 26.8254C13.9254 26.7113 14.177 26.5444 14.3886 26.3345C14.6002 26.1246 14.7678 25.8756 14.8817 25.6019C14.9957 25.3282 15.0538 25.035 15.0527 24.7391C15.0516 24.4433 14.9914 24.1506 14.8755 23.8776C14.7596 23.6047 14.5903 23.3569 14.3771 23.1485L6.85714 15.7631H29.7143C30.3205 15.7631 30.9019 15.5259 31.3305 15.1037C31.7592 14.6814 32 14.1087 32 13.5115C32 12.9143 31.7592 12.3416 31.3305 11.9194C30.9019 11.4971 30.3205 11.2599 29.7143 11.2599Z" fill="black"/>
</svg>
