<svg width="9" height="18" viewBox="0 0 9 18" fill="none" xmlns="http://www.w3.org/2000/svg">
<path d="M0 16.877C0.000266085 16.5784 0.12055 16.2921 0.334407 16.0811L6.16526 10.3205C6.34174 10.1462 6.48175 9.93925 6.57726 9.71147C6.67278 9.48369 6.72194 9.23956 6.72194 8.99301C6.72194 8.74646 6.67278 8.50233 6.57726 8.27455C6.48175 8.04677 6.34174 7.83982 6.16526 7.6655L0.342007 1.90872C0.134343 1.6963 0.0194345 1.4118 0.022032 1.11649C0.0246295 0.821185 0.144525 0.538701 0.355895 0.329879C0.567265 0.121058 0.853197 0.00260871 1.15211 4.25763e-05C1.45102 -0.00252356 1.73899 0.110999 1.954 0.31616L7.77725 6.06844C8.56025 6.84352 9 7.89383 9 8.98888C9 10.0839 8.56025 11.1342 7.77725 11.9093L1.9464 17.6699C1.78719 17.8272 1.58436 17.9345 1.36351 17.9781C1.14265 18.0218 0.91366 17.9998 0.705439 17.915C0.497217 17.8301 0.319093 17.6863 0.193545 17.5015C0.0679956 17.3168 0.00064776 17.0995 0 16.877Z" fill="black"/>
</svg>
