<svg width="27" height="26" viewBox="0 0 27 26" fill="none" xmlns="http://www.w3.org/2000/svg">
<g clip-path="url(#clip0_60_41)">
<path d="M8.35205 22.75C8.78817 23.7157 9.50768 24.5377 10.4222 25.115C11.3368 25.6924 12.4065 25.9999 13.5001 25.9999C14.5936 25.9999 15.6633 25.6924 16.5779 25.115C17.4924 24.5377 18.2119 23.7157 18.6481 22.75H8.35205Z" fill="white"/>
<path d="M25.191 13.5947L23.238 7.39482C22.6126 5.22636 21.2528 3.32124 19.3746 1.98194C17.4964 0.642649 15.2074 -0.0540542 12.8711 0.00245288C10.5347 0.05896 8.28489 0.865439 6.47887 2.29384C4.67284 3.72224 3.41411 5.69069 2.90253 7.88665L1.38603 13.8851C1.18447 14.6821 1.17355 15.5129 1.35409 16.3146C1.53463 17.1163 1.90193 17.8681 2.42825 18.5132C2.95458 19.1582 3.62618 19.6797 4.39238 20.0384C5.15859 20.397 5.99937 20.5833 6.85128 20.5833H19.8079C20.6862 20.5833 21.5524 20.3853 22.3369 20.0051C23.1215 19.6248 23.8027 19.0729 24.3259 18.3936C24.8492 17.7143 25.2 16.9264 25.3502 16.0931C25.5004 15.2598 25.4459 14.4041 25.191 13.5947Z" fill="white"/>
</g>
<defs>
<clipPath id="clip0_60_41">
<rect width="27" height="26" fill="white"/>
</clipPath>
</defs>
</svg>
