<svg width="10" height="22" viewBox="0 0 10 22" fill="none" xmlns="http://www.w3.org/2000/svg">
<path d="M8.74836 14.5256C7.92536 14.3076 7.08836 14.1666 6.24536 14.0856L6.24736 7.91359C7.08936 7.83259 7.92636 7.69159 8.74836 7.47359C9.27736 7.33259 9.59636 6.79159 9.46036 6.26059C8.43836 2.24559 5.30536 0.166592 5.27336 0.147592C5.16936 0.0835923 5.05536 0.0415923 4.94036 0.0195923C4.69536 -0.0294077 4.43736 0.0135923 4.21836 0.147592C4.18736 0.167592 1.05336 2.24559 0.0313595 6.25959C-0.104641 6.79059 0.21436 7.33259 0.74336 7.47259C1.56636 7.69059 2.40336 7.83159 3.24636 7.91259L3.24436 14.0846C2.40236 14.1656 1.56536 14.3066 0.74336 14.5246C0.21436 14.6656 -0.104641 15.2066 0.0313595 15.7376C1.05236 19.7516 4.18636 21.8306 4.21836 21.8496C4.32236 21.9136 4.43636 21.9556 4.55136 21.9776C4.79636 22.0266 5.05436 21.9836 5.27336 21.8496C5.30436 21.8296 8.43836 19.7516 9.46036 15.7376C9.59636 15.2066 9.27736 14.6646 8.74836 14.5246V14.5256Z" fill="black"/>
</svg>
