<svg width="26" height="26" viewBox="0 0 26 26" fill="none" xmlns="http://www.w3.org/2000/svg">
<path d="M18.4167 19.4838V25.9838H22.75C24.5449 25.9838 26 24.5287 26 22.7338V12.8527C26.0003 12.2899 25.7815 11.7491 25.3901 11.3447L16.1839 1.39213C14.5595 -0.365412 11.818 -0.473322 10.0604 1.15107C9.97694 1.22826 9.8965 1.30864 9.81937 1.39213L0.629434 11.3415C0.226129 11.7475 -0.000152267 12.2967 7.68741e-08 12.869V22.7338C7.68741e-08 24.5287 1.45509 25.9838 3.25 25.9838H7.58332V19.4838C7.60358 16.5298 9.98862 14.1175 12.8683 14.048C15.8443 13.9762 18.394 16.4296 18.4167 19.4838Z" fill="white" fill-opacity="0.5"/>
<path d="M13 16.2339C11.2051 16.2339 9.75 17.689 9.75 19.4839V25.9839H16.25V19.4839C16.25 17.689 14.7949 16.2339 13 16.2339Z" fill="white" fill-opacity="0.5"/>
</svg>
