<svg width="30" height="22" viewBox="0 0 30 22" fill="none" xmlns="http://www.w3.org/2000/svg">
<path d="M23.75 0H6.25C2.80375 0 0 2.74144 0 6.11111V15.8889C0 19.2586 2.80375 22 6.25 22H23.75C27.1963 22 30 19.2586 30 15.8889V6.11111C30 2.74144 27.1963 0 23.75 0ZM14.0413 10.7727L11.8237 12.5388L12.7413 15.2704C12.8663 15.6396 12.74 16.0466 12.4237 16.2849C12.1075 16.522 11.6725 16.5391 11.34 16.3264L8.75875 14.6826L6.22 16.3436C6.0625 16.4474 5.88 16.4988 5.69875 16.4988C5.5 16.4988 5.3025 16.4377 5.13625 16.3154C4.8175 16.082 4.685 15.6774 4.80375 15.3071L5.68625 12.5424L3.4575 10.769C3.1575 10.5197 3.04875 10.1151 3.18375 9.75456C3.31875 9.394 3.67 9.15444 4.06375 9.15444H6.8775L7.87375 6.42278C8.01 6.06467 8.36125 5.82633 8.7525 5.82633C9.14375 5.82633 9.495 6.06467 9.63125 6.42278L10.6275 9.15444H13.4412C13.835 9.15444 14.1875 9.39522 14.3225 9.757C14.4575 10.1188 14.3463 10.5246 14.045 10.7727H14.0413ZM21.25 17.1111H18.75C18.06 17.1111 17.5 16.5648 17.5 15.8889C17.5 15.213 18.06 14.6667 18.75 14.6667H21.25C21.94 14.6667 22.5 15.213 22.5 15.8889C22.5 16.5648 21.94 17.1111 21.25 17.1111ZM25 12.2222H18.75C18.06 12.2222 17.5 11.6759 17.5 11C17.5 10.3241 18.06 9.77778 18.75 9.77778H25C25.69 9.77778 26.25 10.3241 26.25 11C26.25 11.6759 25.69 12.2222 25 12.2222ZM25 7.33333H18.75C18.06 7.33333 17.5 6.787 17.5 6.11111C17.5 5.43522 18.06 4.88889 18.75 4.88889H25C25.69 4.88889 26.25 5.43522 26.25 6.11111C26.25 6.787 25.69 7.33333 25 7.33333Z" fill="#1A2332"/>
</svg>
