<svg width="30" height="27" viewBox="0 0 30 27" fill="none" xmlns="http://www.w3.org/2000/svg">
<path d="M7.7525 18.7497C6.31125 18.7497 4.8725 18.3085 3.655 17.4422L1.06125 15.5972C0.50125 15.1997 0.12375 14.5822 0.02625 13.906C-0.06625 13.2697 0.09375 12.651 0.4775 12.161C1.125 11.3335 2.21375 11.0172 3.18875 11.3735L7.2475 12.8635L25.5662 4.03722C27.1313 3.31347 28.9875 3.99972 29.71 5.56222C30.4325 7.12222 29.7575 8.99347 28.2063 9.73472L10.77 18.0685C9.81375 18.5247 8.78375 18.7497 7.7525 18.7497ZM30 24.9997C30 24.3085 29.44 23.7497 28.75 23.7497H1.25C0.56 23.7497 0 24.3085 0 24.9997C0 25.691 0.56 26.2497 1.25 26.2497H28.75C29.44 26.2497 30 25.691 30 24.9997ZM10.7675 8.39347L17.5413 5.12972L10.23 0.614723C9.3125 -0.0665269 8.09625 -0.191527 7.0525 0.289723L6.07625 0.748473C5.50375 1.01722 5.10875 1.55222 5.01875 2.17847C4.92875 2.80597 5.1575 3.42972 5.63125 3.84972L10.7662 8.39472L10.7675 8.39347Z" fill="#1A2332"/>
</svg>
