<svg width="22" height="22" viewBox="0 0 22 22" fill="none" xmlns="http://www.w3.org/2000/svg">
<path d="M22 11C22 13.1756 21.3549 15.3023 20.1462 17.1113C18.9375 18.9202 17.2195 20.3301 15.2095 21.1627C13.1995 21.9952 10.9878 22.2131 8.85401 21.7886C6.72022 21.3642 4.76021 20.3166 3.22183 18.7782C1.68345 17.2398 0.635804 15.2798 0.211367 13.146C-0.213071 11.0122 0.00476615 8.80047 0.83733 6.79048C1.66989 4.7805 3.07979 3.06253 4.88873 1.85383C6.69767 0.645139 8.82441 0 11 0C13.9164 0.00315432 16.7125 1.16309 18.7747 3.22531C20.8369 5.28753 21.9969 8.08359 22 11ZM11.9167 13.0689C11.9052 12.7499 11.9779 12.4335 12.1276 12.1516C12.2772 11.8697 12.4985 11.6321 12.7692 11.4629C13.3356 11.1509 13.8095 10.6946 14.1426 10.1403C14.4758 9.58604 14.6564 8.9535 14.6663 8.30687C14.6761 7.66025 14.5147 7.02253 14.1984 6.45841C13.8822 5.89429 13.4224 5.42384 12.8657 5.09478C12.309 4.76572 11.6751 4.58976 11.0284 4.58474C10.3818 4.57973 9.74525 4.74584 9.18349 5.06622C8.62173 5.38661 8.15469 5.84987 7.82976 6.40901C7.50483 6.96816 7.33357 7.6033 7.33334 8.25H9.16667C9.16644 7.9803 9.22572 7.71386 9.34028 7.4697C9.45484 7.22553 9.62187 7.00965 9.82944 6.83744C10.037 6.66524 10.28 6.54095 10.5411 6.47345C10.8023 6.40595 11.0751 6.39689 11.3401 6.44692C11.7022 6.51721 12.0352 6.69385 12.2964 6.95428C12.5576 7.21471 12.7353 7.5471 12.8068 7.909C12.8789 8.28887 12.8291 8.68182 12.6644 9.03168C12.4998 9.38153 12.2288 9.67038 11.8901 9.85692C11.3292 10.1818 10.8658 10.6512 10.548 11.2162C10.2302 11.7811 10.0698 12.4209 10.0833 13.0689V13.75H11.9167V13.0689ZM11.9167 15.5833H10.0833V17.4167H11.9167V15.5833Z" fill="#1A2332"/>
</svg>
