<svg width="21" height="21" viewBox="0 0 21 21" fill="none" xmlns="http://www.w3.org/2000/svg">
<path d="M20.615 18.7646L16.5505 14.6983C19.5918 10.6342 18.7625 4.87405 14.6983 1.83279C10.6342 -1.20847 4.87405 -0.379214 1.83279 3.68496C-1.20847 7.74914 -0.379214 13.5093 3.68496 16.5505C6.94965 18.9935 11.4336 18.9935 14.6983 16.5505L18.7646 20.6167C19.2756 21.1277 20.104 21.1277 20.615 20.6167C21.126 20.1058 21.126 19.2773 20.615 18.7663L20.615 18.7646ZM9.22554 15.7657C5.61349 15.7657 2.68538 12.8376 2.68538 9.22554C2.68538 5.61349 5.61349 2.68538 9.22554 2.68538C12.8376 2.68538 15.7657 5.61349 15.7657 9.22554C15.7619 12.836 12.836 15.7619 9.22554 15.7657Z" fill="#1A2332"/>
</svg>
