<svg width="33" height="33" viewBox="0 0 33 33" fill="none" xmlns="http://www.w3.org/2000/svg">
<path d="M32.9999 16.431C33.0089 14.6218 32.3215 12.4376 29.1413 11.8556C28.9762 11.5405 28.7946 11.224 28.595 10.906C30.1979 8.68729 30.0748 6.6291 28.2228 4.77793C26.3693 2.92377 24.3102 2.80225 22.089 4.4104C21.7753 4.21238 21.4617 4.03237 21.148 3.87035C20.5747 0.702064 18.4105 0 16.6051 0C14.0732 0 12.4463 1.33662 11.9736 3.93636C11.6614 4.09987 11.3462 4.28139 11.0295 4.47941C8.81885 2.88326 6.75824 3.01977 4.88673 4.88744C3.02122 6.75361 2.88615 8.8148 4.47851 11.0245C4.2789 11.3425 4.0958 11.6591 3.92921 11.9741C1.33431 12.4481 0.0135941 13.9918 8.68521e-05 16.569C-0.00891801 18.3782 0.678453 20.5624 3.85867 21.1444C4.02376 21.4594 4.20536 21.776 4.40647 22.094C2.8021 24.3127 2.92517 26.3709 4.77717 28.2221C6.63067 30.0762 8.69128 30.1977 10.911 28.5896C11.2247 28.7876 11.5383 28.9676 11.852 29.1296C12.4253 32.2979 14.5895 33 16.3949 33C19.0739 33 20.5537 31.6634 21.0264 29.0636C21.3386 28.9001 21.6538 28.7186 21.9705 28.5206C25.4989 31.1743 28.1118 28.1126 28.1133 28.1126C29.9353 26.3889 30.1154 24.1852 28.5215 21.974C28.7211 21.656 28.9042 21.3394 29.0708 21.0259C31.6657 20.5519 32.9864 19.0082 32.9999 16.431ZM20.195 20.1933C18.9688 21.4204 17.8042 22.1045 16.1878 22.0085C14.663 21.917 13.5269 20.9164 12.805 20.1933C10.3527 17.7436 10.3527 15.2564 12.805 12.8052C14.1287 11.479 15.4374 10.876 16.8122 10.9915C18.3355 11.1085 19.4731 12.0836 20.195 12.8067C22.6458 15.2564 22.6473 17.7436 20.195 20.1948V20.1933Z" fill="#1A2332"/>
</svg>
