<svg width="25" height="27" viewBox="0 0 25 27" fill="none" xmlns="http://www.w3.org/2000/svg">
<path d="M0.454707 20.25C1.38526 21.865 3.44891 22.4199 5.06395 21.4894L5.06722 21.4875L5.56783 21.1983C6.51283 22.0068 7.59905 22.6339 8.77181 23.0478V23.625C8.77181 25.4889 10.2829 27 12.1468 27C14.0108 27 15.5218 25.4889 15.5218 23.625V23.0479C16.6947 22.6332 17.781 22.0055 18.7258 21.1961L19.2287 21.4864C20.8441 22.4183 22.9092 21.8643 23.8412 20.2488C24.7732 18.6334 24.2191 16.5683 22.6037 15.6363L22.1042 15.3483C22.329 14.1248 22.329 12.8706 22.1042 11.6471L22.6037 11.3591C24.2191 10.4271 24.7732 8.36204 23.8412 6.74657C22.9092 5.13116 20.8441 4.57708 19.2287 5.50905L18.7281 5.7982C17.7821 4.99068 16.6952 4.36482 15.5218 3.95213V3.375C15.5218 1.51105 14.0108 0 12.1468 0C10.2829 0 8.77181 1.51105 8.77181 3.375V3.95213C7.5989 4.36678 6.51262 4.99453 5.56783 5.80389L5.06496 5.51254C3.44949 4.58051 1.38441 5.13459 0.452439 6.75C-0.479535 8.36541 0.0744919 10.4305 1.68996 11.3625L2.18946 11.6505C1.9646 12.874 1.9646 14.1282 2.18946 15.3518L1.68996 15.6397C0.0789744 16.5742 -0.47326 18.6353 0.454707 20.25ZM12.1468 9.00002C14.6321 9.00002 16.6468 11.0147 16.6468 13.5C16.6468 15.9853 14.6321 18 12.1468 18C9.66155 18 7.64683 15.9853 7.64683 13.5C7.64683 11.0147 9.66155 9.00002 12.1468 9.00002Z" fill="white" fill-opacity="0.5"/>
</svg>
