<svg width="22" height="22" viewBox="0 0 22 22" fill="none" xmlns="http://www.w3.org/2000/svg">
<path d="M21.9881 10.953C21.9941 9.747 21.5361 8.291 19.4171 7.903C19.3071 7.693 19.1861 7.482 19.0531 7.27C20.1211 5.791 20.0391 4.419 18.8051 3.185C17.5701 1.949 16.1981 1.868 14.7181 2.94C14.5091 2.808 14.3001 2.688 14.0911 2.58C13.7091 0.468 12.2671 0 11.0641 0C9.37706 0 8.29306 0.891 7.97806 2.624C7.77006 2.733 7.56006 2.854 7.34906 2.986C5.87606 1.922 4.50306 2.013 3.25606 3.258C2.01306 4.502 1.92306 5.876 2.98406 7.349C2.85106 7.561 2.72906 7.772 2.61806 7.982C0.889058 8.298 0.00905787 9.327 5.78701e-05 11.045C-0.00594213 12.251 0.452058 13.707 2.57106 14.095C2.68106 14.305 2.80206 14.516 2.93606 14.728C1.86706 16.207 1.94906 17.579 3.18306 18.813C4.41806 20.049 5.79106 20.13 7.27006 19.058C7.47906 19.19 7.68806 19.31 7.89706 19.418C8.27906 21.53 9.72106 21.998 10.9241 21.998C12.7091 21.998 13.6951 21.107 14.0101 19.374C14.2181 19.265 14.4281 19.144 14.6391 19.012C16.9901 20.781 18.7311 18.74 18.7321 18.74C19.9461 17.591 20.0661 16.122 19.0041 14.648C19.1371 14.436 19.2591 14.225 19.3701 14.016C21.0991 13.7 21.9791 12.671 21.9881 10.953ZM13.4561 13.461C12.6391 14.279 11.8631 14.735 10.7861 14.671C9.77006 14.61 9.01306 13.943 8.53206 13.461C6.89806 11.828 6.89806 10.17 8.53206 8.536C9.41406 7.652 10.2861 7.25 11.2021 7.327C12.2171 7.405 12.9751 8.055 13.4561 8.537C15.0891 10.17 15.0901 11.828 13.4561 13.462V13.461Z" fill="#1A2332"/>
</svg>
